<?xml version="1.0" encoding="utf-8"?>
<!-- Generator: Adobe Illustrator 22.0.0, SVG Export Plug-In . SVG Version: 6.00 Build 0)  -->
<svg version="1.1" id="Layer_1" xmlns="http://www.w3.org/2000/svg" xmlns:xlink="http://www.w3.org/1999/xlink" x="0px" y="0px"
	 viewBox="0 0 24 24" style="enable-background:new 0 0 24 24;" xml:space="preserve">
<style type="text/css">
	.st0{fill:#E84D4D;}
</style>
<path class="st0" d="M18,9h-1V6c0-2.8-2.2-5-5-5S7,3.2,7,6v3H6c-1.1,0-2,0.9-2,2v9c0,1.1,0.9,2,2,2h12c1.1,0,2-0.9,2-2v-9
	C20,9.9,19.1,9,18,9z M8.9,6c0-1.7,1.4-3.1,3.1-3.1s3.1,1.4,3.1,3.1v3H8.9V6z"/>
</svg>
