<svg xmlns="http://www.w3.org/2000/svg" viewBox="0 0 512 512">
  <title>Artboard 1</title>
  <g>
    <path d="M221.28,463.37a48.45,48.45,0,0,1,48.46-48.46h96.9a48.43,48.43,0,0,0,48.45-48.45V269.55a48.46,48.46,0,0,1,96.91,0v96.91A145.32,145.32,0,0,1,366.64,511.82h-96.9A48.44,48.44,0,0,1,221.28,463.37Z" fill="#fff"/>
    <path d="M290.9,48.45a48.44,48.44,0,0,1-48.45,48.46H145.54a48.43,48.43,0,0,0-48.45,48.45v96.9a48.46,48.46,0,1,1-96.91,0v-96.9A145.32,145.32,0,0,1,145.54,0h96.91A48.43,48.43,0,0,1,290.9,48.45Z" fill="#fff"/>
  </g>
</svg>
