<?xml version="1.0" encoding="utf-8"?>
<!-- Generator: Adobe Illustrator 22.0.0, SVG Export Plug-In . SVG Version: 6.00 Build 0)  -->
<svg version="1.1" id="Layer_1" xmlns="http://www.w3.org/2000/svg" xmlns:xlink="http://www.w3.org/1999/xlink" x="0px" y="0px"
	 viewBox="0 0 64 64" style="enable-background:new 0 0 64 64;" xml:space="preserve">
<path d="M21.7,64H13C5.8,64,0,58.2,0,51v-8.7C0,39.9,1.9,38,4.3,38s4.3,1.9,4.3,4.3V51c0,2.4,1.9,4.3,4.3,4.3h8.7
	c2.4,0,4.3,1.9,4.3,4.3C26,62.1,24.1,64,21.7,64z"/>
<path d="M27.7,57.9c0-3.3,2.7-6.1,6.1-6.1h12.1c3.3,0,6.1-2.7,6.1-6.1V33.7c0-3.3,2.7-6.1,6.1-6.1c3.3,0,6.1,2.7,6.1,6.1v12.1
	c0,10-8.1,18.2-18.2,18.2H33.7C30.4,64,27.7,61.3,27.7,57.9z"/>
<path d="M36.3,6.1c0,3.3-2.7,6.1-6.1,6.1H18.2c-3.3,0-6.1,2.7-6.1,6.1v12.1c0,3.3-2.7,6.1-6.1,6.1c-3.3,0-6.1-2.7-6.1-6.1V18.2
	C0,8.1,8.1,0,18.2,0h12.1C33.6,0,36.3,2.7,36.3,6.1z"/>
<path d="M42.3,0H51c7.2,0,13,5.8,13,13v8.7c0,2.4-1.9,4.3-4.3,4.3s-4.3-1.9-4.3-4.3V13c0-2.4-1.9-4.3-4.3-4.3h-8.7
	c-2.4,0-4.3-1.9-4.3-4.3S39.9,0,42.3,0z"/>
</svg>
