<?xml version="1.0" encoding="utf-8"?>
<!-- Generator: Adobe Illustrator 22.0.0, SVG Export Plug-In . SVG Version: 6.00 Build 0)  -->
<svg version="1.1" id="Layer_1" xmlns="http://www.w3.org/2000/svg" xmlns:xlink="http://www.w3.org/1999/xlink" x="0px" y="0px"
	 viewBox="0 0 24 24" style="enable-background:new 0 0 24 24;" xml:space="preserve">
<style type="text/css">
	.st0{fill:none;}
	.st1{fill:#FFFFFF;}
</style>
<path class="st0" d="M0,0h24v24H0V0z"/>
<path class="st1" d="M13,3h-2v10h2V3z M17.8,5.2l-1.4,1.4C18,7.9,19,9.8,19,12c0,3.9-3.1,7-7,7s-7-3.1-7-7c0-2.2,1-4.1,2.6-5.4
	L6.2,5.2C4.2,6.8,3,9.3,3,12c0,5,4,9,9,9s9-4,9-9C21,9.3,19.8,6.8,17.8,5.2z"/>
</svg>
